<?xml version="1.0" standalone="no"?><!DOCTYPE svg PUBLIC "-//W3C//DTD SVG 1.1//EN" "http://www.w3.org/Graphics/SVG/1.1/DTD/svg11.dtd"><svg t="1768462437330" class="icon" viewBox="0 0 1024 1024" version="1.1" xmlns="http://www.w3.org/2000/svg" p-id="13670" xmlns:xlink="http://www.w3.org/1999/xlink" width="200" height="200"><path d="M736 480h-192v-192a32 32 0 0 0-64 0v192h-192a32 32 0 0 0 0 64h192v192a32 32 0 0 0 64 0v-192h192a32 32 0 0 0 0-64z" fill="#333333" p-id="13671"></path><path d="M853.333333 170.666667v682.666666H170.666667V170.666667h682.666666m42.666667-64H128a21.333333 21.333333 0 0 0-21.333333 21.333333v768a21.333333 21.333333 0 0 0 21.333333 21.333333h768a21.333333 21.333333 0 0 0 21.333333-21.333333V128a21.333333 21.333333 0 0 0-21.333333-21.333333z" fill="#333333" p-id="13672"></path></svg>