<?xml version="1.0" standalone="no"?><!DOCTYPE svg PUBLIC "-//W3C//DTD SVG 1.1//EN" "http://www.w3.org/Graphics/SVG/1.1/DTD/svg11.dtd"><svg t="1768462446422" class="icon" viewBox="0 0 1099 1024" version="1.1" xmlns="http://www.w3.org/2000/svg" p-id="14917" xmlns:xlink="http://www.w3.org/1999/xlink" width="214.6484375" height="200"><path d="M283.913481 819.617185H113.170963A113.322667 113.322667 0 0 1 0 706.446222V113.170963A113.322667 113.322667 0 0 1 113.170963 0h593.237333a113.284741 113.284741 0 0 1 113.170963 113.170963V212.005926h-87.229629V113.170963a26.282667 26.282667 0 0 0-25.941334-25.941333H113.170963a26.282667 26.282667 0 0 0-25.941333 25.941333v593.275259c0 14.070519 11.870815 25.903407 25.941333 25.903408h170.742518v87.267555z" fill="#AAAAAA" p-id="14918"></path><path d="M363.254519 256.379259a31.478519 31.478519 0 0 0-31.440593 31.402667v582.276741a31.478519 31.478519 0 0 0 31.478518 31.402666H945.493333a31.402667 31.402667 0 0 0 31.402667-31.402666V287.781926a31.402667 31.402667 0 0 0-31.402667-31.402667H363.254519zM945.531259 988.728889H363.254519A118.821926 118.821926 0 0 1 244.622222 870.058667V287.781926A118.821926 118.821926 0 0 1 363.254519 169.14963h582.27674a118.821926 118.821926 0 0 1 118.632297 118.708148V870.020741a118.821926 118.821926 0 0 1-118.632297 118.708148z" fill="#AAAAAA" p-id="14919"></path><path d="M619.861333 716.837926v-275.835259c0-18.962963 15.54963-34.512593 34.512593-34.512593 19.038815 0 34.512593 15.54963 34.512593 34.512593v275.835259a34.62637 34.62637 0 0 1-34.512593 34.550518 34.664296 34.664296 0 0 1-34.512593-34.512592" fill="#AAAAAA" p-id="14920"></path><path d="M516.475259 544.388741h275.83526c18.962963 0 34.512593 15.54963 34.512592 34.512592 0 19.038815-15.54963 34.588444-34.512592 34.588445h-275.83526a34.664296 34.664296 0 0 1-34.550518-34.550519c0-19.038815 15.54963-34.512593 34.512592-34.512592" fill="#AAAAAA" p-id="14921"></path></svg>